<?xml version="1.0" encoding="UTF-8"?>
<svg version="1.1" xmlns="http://www.w3.org/2000/svg" width="800" height="640">
<path d="M0 0 C42.9 0 85.8 0 130 0 C130 3.3 130 6.6 130 10 C143.2 10 156.4 10 170 10 C170 13.3 170 16.6 170 20 C176.6 20 183.2 20 190 20 C190 23.3 190 26.6 190 30 C196.6 30 203.2 30 210 30 C210 33.3 210 36.6 210 40 C213.3 40 216.6 40 220 40 C220 43.3 220 46.6 220 50 C223.3 50 226.6 50 230 50 C230 53.3 230 56.6 230 60 C239.9 60 249.8 60 260 60 C260 56.7 260 53.4 260 50 C266.6 50 273.2 50 280 50 C280 46.7 280 43.4 280 40 C286.6 40 293.2 40 300 40 C300 36.7 300 33.4 300 30 C309.9 30 319.8 30 330 30 C330 26.7 330 23.4 330 20 C369.6 20 409.2 20 450 20 C450 23.3 450 26.6 450 30 C459.9 30 469.8 30 480 30 C480 33.3 480 36.6 480 40 C486.6 40 493.2 40 500 40 C500 43.3 500 46.6 500 50 C506.6 50 513.2 50 520 50 C520 53.3 520 56.6 520 60 C523.3 60 526.6 60 530 60 C530 63.3 530 66.6 530 70 C533.3 70 536.6 70 540 70 C540 73.3 540 76.6 540 80 C536.7 80 533.4 80 530 80 C530 83.3 530 86.6 530 90 C526.7 90 523.4 90 520 90 C520 93.3 520 96.6 520 100 C506.8 100 493.6 100 480 100 C480 103.3 480 106.6 480 110 C463.5 110 447 110 430 110 C430 113.3 430 116.6 430 120 C433.3 120 436.6 120 440 120 C440 123.3 440 126.6 440 130 C443.3 130 446.6 130 450 130 C450 133.3 450 136.6 450 140 C446.7 140 443.4 140 440 140 C440 143.3 440 146.6 440 150 C436.7 150 433.4 150 430 150 C430 153.3 430 156.6 430 160 C413.5 160 397 160 380 160 C380 163.3 380 166.6 380 170 C360.2 170 340.4 170 320 170 C320 173.3 320 176.6 320 180 C296.9 180 273.8 180 250 180 C250 183.3 250 186.6 250 190 C223.6 190 197.2 190 170 190 C170 193.3 170 196.6 170 200 C163.4 200 156.8 200 150 200 C150 203.3 150 206.6 150 210 C143.4 210 136.8 210 130 210 C130 206.7 130 203.4 130 200 C126.7 200 123.4 200 120 200 C120 203.3 120 206.6 120 210 C93.6 210 67.2 210 40 210 C40 206.7 40 203.4 40 200 C36.7 200 33.4 200 30 200 C30 196.7 30 193.4 30 190 C26.7 190 23.4 190 20 190 C20 186.7 20 183.4 20 180 C16.7 180 13.4 180 10 180 C10 176.7 10 173.4 10 170 C13.3 170 16.6 170 20 170 C20 166.7 20 163.4 20 160 C23.3 160 26.6 160 30 160 C30 156.7 30 153.4 30 150 C33.3 150 36.6 150 40 150 C40 146.7 40 143.4 40 140 C43.3 140 46.6 140 50 140 C50 136.7 50 133.4 50 130 C63.2 130 76.4 130 90 130 C90 126.7 90 123.4 90 120 C93.3 120 96.6 120 100 120 C100 116.7 100 113.4 100 110 C93.4 110 86.8 110 80 110 C80 106.7 80 103.4 80 100 C63.5 100 47 100 30 100 C30 96.7 30 93.4 30 90 C13.5 90 -3 90 -20 90 C-20 86.7 -20 83.4 -20 80 C-33.2 80 -46.4 80 -60 80 C-60 76.7 -60 73.4 -60 70 C-63.3 70 -66.6 70 -70 70 C-70 66.7 -70 63.4 -70 60 C-73.3 60 -76.6 60 -80 60 C-80 56.7 -80 53.4 -80 50 C-76.7 50 -73.4 50 -70 50 C-70 46.7 -70 43.4 -70 40 C-66.7 40 -63.4 40 -60 40 C-60 36.7 -60 33.4 -60 30 C-53.4 30 -46.8 30 -40 30 C-40 26.7 -40 23.4 -40 20 C-33.4 20 -26.8 20 -20 20 C-20 16.7 -20 13.4 -20 10 C-13.4 10 -6.8 10 0 10 C0 6.7 0 3.4 0 0 Z " fill="#FCFCFC" transform="translate(240,200)"/>
<path d="M0 0 C42.9 0 85.8 0 130 0 C130 3.3 130 6.6 130 10 C143.2 10 156.4 10 170 10 C170 13.3 170 16.6 170 20 C176.6 20 183.2 20 190 20 C190 23.3 190 26.6 190 30 C196.6 30 203.2 30 210 30 C210 33.3 210 36.6 210 40 C213.3 40 216.6 40 220 40 C220 43.3 220 46.6 220 50 C223.3 50 226.6 50 230 50 C230 53.3 230 56.6 230 60 C239.9 60 249.8 60 260 60 C260 56.7 260 53.4 260 50 C266.6 50 273.2 50 280 50 C280 46.7 280 43.4 280 40 C286.6 40 293.2 40 300 40 C300 36.7 300 33.4 300 30 C309.9 30 319.8 30 330 30 C330 26.7 330 23.4 330 20 C369.6 20 409.2 20 450 20 C450 23.3 450 26.6 450 30 C459.9 30 469.8 30 480 30 C480 33.3 480 36.6 480 40 C486.6 40 493.2 40 500 40 C500 43.3 500 46.6 500 50 C506.6 50 513.2 50 520 50 C520 53.3 520 56.6 520 60 C523.3 60 526.6 60 530 60 C530 63.3 530 66.6 530 70 C533.3 70 536.6 70 540 70 C540 73.3 540 76.6 540 80 C536.7 80 533.4 80 530 80 C530 83.3 530 86.6 530 90 C526.7 90 523.4 90 520 90 C520 93.3 520 96.6 520 100 C506.8 100 493.6 100 480 100 C480 103.3 480 106.6 480 110 C463.5 110 447 110 430 110 C430 113.3 430 116.6 430 120 C433.3 120 436.6 120 440 120 C440 123.3 440 126.6 440 130 C443.3 130 446.6 130 450 130 C450 133.3 450 136.6 450 140 C446.7 140 443.4 140 440 140 C440 143.3 440 146.6 440 150 C436.7 150 433.4 150 430 150 C430 153.3 430 156.6 430 160 C413.5 160 397 160 380 160 C380 163.3 380 166.6 380 170 C360.2 170 340.4 170 320 170 C320 173.3 320 176.6 320 180 C296.9 180 273.8 180 250 180 C250 183.3 250 186.6 250 190 C223.6 190 197.2 190 170 190 C170 193.3 170 196.6 170 200 C163.4 200 156.8 200 150 200 C150 203.3 150 206.6 150 210 C143.4 210 136.8 210 130 210 C130 206.7 130 203.4 130 200 C126.7 200 123.4 200 120 200 C120 203.3 120 206.6 120 210 C93.6 210 67.2 210 40 210 C40 206.7 40 203.4 40 200 C36.7 200 33.4 200 30 200 C30 196.7 30 193.4 30 190 C26.7 190 23.4 190 20 190 C20 186.7 20 183.4 20 180 C16.7 180 13.4 180 10 180 C10 176.7 10 173.4 10 170 C13.3 170 16.6 170 20 170 C20 166.7 20 163.4 20 160 C23.3 160 26.6 160 30 160 C30 156.7 30 153.4 30 150 C33.3 150 36.6 150 40 150 C40 146.7 40 143.4 40 140 C56.5 140 73 140 90 140 C90 143.3 90 146.6 90 150 C76.8 150 63.6 150 50 150 C50 153.3 50 156.6 50 160 C46.7 160 43.4 160 40 160 C40 163.3 40 166.6 40 170 C36.7 170 33.4 170 30 170 C30 173.3 30 176.6 30 180 C33.3 180 36.6 180 40 180 C40 183.3 40 186.6 40 190 C66.4 190 92.8 190 120 190 C120 186.7 120 183.4 120 180 C136.5 180 153 180 170 180 C170 176.7 170 173.4 170 170 C196.4 170 222.8 170 250 170 C250 166.7 250 163.4 250 160 C273.1 160 296.2 160 320 160 C320 156.7 320 153.4 320 150 C339.8 150 359.6 150 380 150 C380 143.4 380 136.8 380 130 C376.7 130 373.4 130 370 130 C370 126.7 370 123.4 370 120 C379.9 120 389.8 120 400 120 C400 116.7 400 113.4 400 110 C396.7 110 393.4 110 390 110 C390 106.7 390 103.4 390 100 C386.7 100 383.4 100 380 100 C380 96.7 380 93.4 380 90 C393.2 90 406.4 90 420 90 C420 86.7 420 83.4 420 80 C433.2 80 446.4 80 460 80 C460 76.7 460 73.4 460 70 C456.7 70 453.4 70 450 70 C450 66.7 450 63.4 450 60 C443.4 60 436.8 60 430 60 C430 56.7 430 53.4 430 50 C423.4 50 416.8 50 410 50 C410 46.7 410 43.4 410 40 C383.6 40 357.2 40 330 40 C330 43.3 330 46.6 330 50 C320.1 50 310.2 50 300 50 C300 53.3 300 56.6 300 60 C293.4 60 286.8 60 280 60 C280 63.3 280 66.6 280 70 C273.4 70 266.8 70 260 70 C260 73.3 260 76.6 260 80 C250.1 80 240.2 80 230 80 C230 76.7 230 73.4 230 70 C226.7 70 223.4 70 220 70 C220 66.7 220 63.4 220 60 C216.7 60 213.4 60 210 60 C210 56.7 210 53.4 210 50 C203.4 50 196.8 50 190 50 C190 46.7 190 43.4 190 40 C183.4 40 176.8 40 170 40 C170 36.7 170 33.4 170 30 C156.8 30 143.6 30 130 30 C130 26.7 130 23.4 130 20 C113.5 20 97 20 80 20 C80 23.3 80 26.6 80 30 C70.1 30 60.2 30 50 30 C50 33.3 50 36.6 50 40 C40.1 40 30.2 40 20 40 C20 43.3 20 46.6 20 50 C16.7 50 13.4 50 10 50 C10 53.3 10 56.6 10 60 C19.9 60 29.8 60 40 60 C40 63.3 40 66.6 40 70 C46.6 70 53.2 70 60 70 C60 73.3 60 76.6 60 80 C66.6 80 73.2 80 80 80 C80 83.3 80 86.6 80 90 C47 90 14 90 -20 90 C-20 86.7 -20 83.4 -20 80 C-33.2 80 -46.4 80 -60 80 C-60 76.7 -60 73.4 -60 70 C-63.3 70 -66.6 70 -70 70 C-70 66.7 -70 63.4 -70 60 C-73.3 60 -76.6 60 -80 60 C-80 56.7 -80 53.4 -80 50 C-76.7 50 -73.4 50 -70 50 C-70 46.7 -70 43.4 -70 40 C-66.7 40 -63.4 40 -60 40 C-60 36.7 -60 33.4 -60 30 C-53.4 30 -46.8 30 -40 30 C-40 26.7 -40 23.4 -40 20 C-33.4 20 -26.8 20 -20 20 C-20 16.7 -20 13.4 -20 10 C-13.4 10 -6.8 10 0 10 C0 6.7 0 3.4 0 0 Z " fill="#000000" transform="translate(240,200)"/>
<path d="M0 0 C26.4 0 52.8 0 80 0 C80 3.3 80 6.6 80 10 C63.5 10 47 10 30 10 C30 13.3 30 16.6 30 20 C33.3 20 36.6 20 40 20 C40 23.3 40 26.6 40 30 C43.3 30 46.6 30 50 30 C50 33.3 50 36.6 50 40 C46.7 40 43.4 40 40 40 C40 43.3 40 46.6 40 50 C36.7 50 33.4 50 30 50 C30 53.3 30 56.6 30 60 C13.5 60 -3 60 -20 60 C-20 63.3 -20 66.6 -20 70 C-39.8 70 -59.6 70 -80 70 C-80 73.3 -80 76.6 -80 80 C-103.1 80 -126.2 80 -150 80 C-150 83.3 -150 86.6 -150 90 C-176.4 90 -202.8 90 -230 90 C-230 93.3 -230 96.6 -230 100 C-236.6 100 -243.2 100 -250 100 C-250 103.3 -250 106.6 -250 110 C-256.6 110 -263.2 110 -270 110 C-270 106.7 -270 103.4 -270 100 C-273.3 100 -276.6 100 -280 100 C-280 103.3 -280 106.6 -280 110 C-306.4 110 -332.8 110 -360 110 C-360 106.7 -360 103.4 -360 100 C-363.3 100 -366.6 100 -370 100 C-370 96.7 -370 93.4 -370 90 C-373.3 90 -376.6 90 -380 90 C-380 86.7 -380 83.4 -380 80 C-383.3 80 -386.6 80 -390 80 C-390 76.7 -390 73.4 -390 70 C-386.7 70 -383.4 70 -380 70 C-380 66.7 -380 63.4 -380 60 C-376.7 60 -373.4 60 -370 60 C-370 56.7 -370 53.4 -370 50 C-366.7 50 -363.4 50 -360 50 C-360 46.7 -360 43.4 -360 40 C-343.5 40 -327 40 -310 40 C-310 43.3 -310 46.6 -310 50 C-323.2 50 -336.4 50 -350 50 C-350 53.3 -350 56.6 -350 60 C-353.3 60 -356.6 60 -360 60 C-360 63.3 -360 66.6 -360 70 C-363.3 70 -366.6 70 -370 70 C-370 73.3 -370 76.6 -370 80 C-366.7 80 -363.4 80 -360 80 C-360 83.3 -360 86.6 -360 90 C-333.6 90 -307.2 90 -280 90 C-280 86.7 -280 83.4 -280 80 C-263.5 80 -247 80 -230 80 C-230 76.7 -230 73.4 -230 70 C-203.6 70 -177.2 70 -150 70 C-150 66.7 -150 63.4 -150 60 C-126.9 60 -103.8 60 -80 60 C-80 56.7 -80 53.4 -80 50 C-60.2 50 -40.4 50 -20 50 C-20 43.4 -20 36.8 -20 30 C-23.3 30 -26.6 30 -30 30 C-30 26.7 -30 23.4 -30 20 C-20.1 20 -10.2 20 0 20 C0 13.4 0 6.8 0 0 Z " fill="#EBDB68" transform="translate(640,300)"/>
<path d="M0 0 C13.2 0 26.4 0 40 0 C40 3.3 40 6.6 40 10 C63.1 10 86.2 10 110 10 C110 13.3 110 16.6 110 20 C90.2 20 70.4 20 50 20 C50 23.3 50 26.6 50 30 C26.9 30 3.8 30 -20 30 C-20 33.3 -20 36.6 -20 40 C-46.4 40 -72.8 40 -100 40 C-100 43.3 -100 46.6 -100 50 C-116.5 50 -133 50 -150 50 C-150 53.3 -150 56.6 -150 60 C-169.8 60 -189.6 60 -210 60 C-210 56.7 -210 53.4 -210 50 C-206.7 50 -203.4 50 -200 50 C-200 46.7 -200 43.4 -200 40 C-183.5 40 -167 40 -150 40 C-150 36.7 -150 33.4 -150 30 C-133.5 30 -117 30 -100 30 C-100 26.7 -100 23.4 -100 20 C-83.5 20 -67 20 -50 20 C-50 16.7 -50 13.4 -50 10 C-33.5 10 -17 10 0 10 C0 6.7 0 3.4 0 0 Z " fill="#EDEDED" transform="translate(510,330)"/>
<path d="M0 0 C9.9 0 19.8 0 30 0 C30 3.3 30 6.6 30 10 C36.6 10 43.2 10 50 10 C50 13.3 50 16.6 50 20 C56.6 20 63.2 20 70 20 C70 23.3 70 26.6 70 30 C73.3 30 76.6 30 80 30 C80 33.3 80 36.6 80 40 C83.3 40 86.6 40 90 40 C90 43.3 90 46.6 90 50 C86.7 50 83.4 50 80 50 C80 53.3 80 56.6 80 60 C76.7 60 73.4 60 70 60 C70 63.3 70 66.6 70 70 C30.4 70 -9.2 70 -50 70 C-50 73.3 -50 76.6 -50 80 C-53.3 80 -56.6 80 -60 80 C-60 76.7 -60 73.4 -60 70 C-63.3 70 -66.6 70 -70 70 C-70 66.7 -70 63.4 -70 60 C-56.8 60 -43.6 60 -30 60 C-30 56.7 -30 53.4 -30 50 C-16.8 50 -3.6 50 10 50 C10 46.7 10 43.4 10 40 C6.7 40 3.4 40 0 40 C0 36.7 0 33.4 0 30 C-6.6 30 -13.2 30 -20 30 C-20 26.7 -20 23.4 -20 20 C-26.6 20 -33.2 20 -40 20 C-40 16.7 -40 13.4 -40 10 C-26.8 10 -13.6 10 0 10 C0 6.7 0 3.4 0 0 Z " fill="#4B4B4B" transform="translate(690,230)"/>
<path d="M0 0 C16.5 0 33 0 50 0 C50 3.3 50 6.6 50 10 C40.1 10 30.2 10 20 10 C20 13.3 20 16.6 20 20 C16.7 20 13.4 20 10 20 C10 23.3 10 26.6 10 30 C19.9 30 29.8 30 40 30 C40 33.3 40 36.6 40 40 C46.6 40 53.2 40 60 40 C60 43.3 60 46.6 60 50 C66.6 50 73.2 50 80 50 C80 53.3 80 56.6 80 60 C47 60 14 60 -20 60 C-20 56.7 -20 53.4 -20 50 C-33.2 50 -46.4 50 -60 50 C-60 43.4 -60 36.8 -60 30 C-46.8 30 -33.6 30 -20 30 C-20 26.7 -20 23.4 -20 20 C-16.7 20 -13.4 20 -10 20 C-10 16.7 -10 13.4 -10 10 C-6.7 10 -3.4 10 0 10 C0 6.7 0 3.4 0 0 Z " fill="#505050" transform="translate(240,230)"/>
<path d="M0 0 C9.9 0 19.8 0 30 0 C30 3.3 30 6.6 30 10 C33.3 10 36.6 10 40 10 C40 13.3 40 16.6 40 20 C49.9 20 59.8 20 70 20 C70 26.6 70 33.2 70 40 C30.4 40 -9.2 40 -50 40 C-50 43.3 -50 46.6 -50 50 C-53.3 50 -56.6 50 -60 50 C-60 46.7 -60 43.4 -60 40 C-63.3 40 -66.6 40 -70 40 C-70 36.7 -70 33.4 -70 30 C-56.8 30 -43.6 30 -30 30 C-30 26.7 -30 23.4 -30 20 C-16.8 20 -3.6 20 10 20 C10 16.7 10 13.4 10 10 C6.7 10 3.4 10 0 10 C0 6.7 0 3.4 0 0 Z " fill="#505050" transform="translate(690,260)"/>
<path d="M0 0 C39.6 0 79.2 0 120 0 C120 3.3 120 6.6 120 10 C93.6 10 67.2 10 40 10 C40 13.3 40 16.6 40 20 C36.7 20 33.4 20 30 20 C30 23.3 30 26.6 30 30 C26.7 30 23.4 30 20 30 C20 33.3 20 36.6 20 40 C6.8 40 -6.4 40 -20 40 C-20 43.3 -20 46.6 -20 50 C-23.3 50 -26.6 50 -30 50 C-30 46.7 -30 43.4 -30 40 C-33.3 40 -36.6 40 -40 40 C-40 36.7 -40 33.4 -40 30 C-36.7 30 -33.4 30 -30 30 C-30 26.7 -30 23.4 -30 20 C-26.7 20 -23.4 20 -20 20 C-20 16.7 -20 13.4 -20 10 C-13.4 10 -6.8 10 0 10 C0 6.7 0 3.4 0 0 Z " fill="#787878" transform="translate(200,220)"/>
<path d="M0 0 C16.5 0 33 0 50 0 C50 3.3 50 6.6 50 10 C36.8 10 23.6 10 10 10 C10 13.3 10 16.6 10 20 C6.7 20 3.4 20 0 20 C0 23.3 0 26.6 0 30 C-3.3 30 -6.6 30 -10 30 C-10 33.3 -10 36.6 -10 40 C-6.7 40 -3.4 40 0 40 C0 43.3 0 46.6 0 50 C26.4 50 52.8 50 80 50 C80 56.6 80 63.2 80 70 C53.6 70 27.2 70 0 70 C0 66.7 0 63.4 0 60 C-3.3 60 -6.6 60 -10 60 C-10 56.7 -10 53.4 -10 50 C-13.3 50 -16.6 50 -20 50 C-20 46.7 -20 43.4 -20 40 C-23.3 40 -26.6 40 -30 40 C-30 36.7 -30 33.4 -30 30 C-26.7 30 -23.4 30 -20 30 C-20 26.7 -20 23.4 -20 20 C-16.7 20 -13.4 20 -10 20 C-10 16.7 -10 13.4 -10 10 C-6.7 10 -3.4 10 0 10 C0 6.7 0 3.4 0 0 Z " fill="#000000" transform="translate(280,340)"/>
<path d="M0 0 C42.9 0 85.8 0 130 0 C130 6.6 130 13.2 130 20 C80.5 20 31 20 -20 20 C-20 16.7 -20 13.4 -20 10 C-13.4 10 -6.8 10 0 10 C0 6.7 0 3.4 0 0 Z " fill="#000000" transform="translate(240,200)"/>
<path d="M0 0 C42.9 0 85.8 0 130 0 C130 3.3 130 6.6 130 10 C103.6 10 77.2 10 50 10 C50 13.3 50 16.6 50 20 C43.4 20 36.8 20 30 20 C30 23.3 30 26.6 30 30 C23.4 30 16.8 30 10 30 C10 26.7 10 23.4 10 20 C6.7 20 3.4 20 0 20 C0 13.4 0 6.8 0 0 Z " fill="#F2B878" transform="translate(360,380)"/>
<path d="M0 0 C42.9 0 85.8 0 130 0 C130 3.3 130 6.6 130 10 C87.1 10 44.2 10 0 10 C0 6.7 0 3.4 0 0 Z " fill="#FEFEFE" transform="translate(240,200)"/>
<path d="M0 0 C39.6 0 79.2 0 120 0 C120 3.3 120 6.6 120 10 C80.4 10 40.8 10 0 10 C0 6.7 0 3.4 0 0 Z " fill="#FEFEFE" transform="translate(570,220)"/>
<path d="M0 0 C16.5 0 33 0 50 0 C50 6.6 50 13.2 50 20 C30.2 20 10.4 20 -10 20 C-10 16.7 -10 13.4 -10 10 C-6.7 10 -3.4 10 0 10 C0 6.7 0 3.4 0 0 Z " fill="#EDEDED" transform="translate(310,370)"/>
<path d="M0 0 C33 0 66 0 100 0 C100 3.3 100 6.6 100 10 C73.6 10 47.2 10 20 10 C20 13.3 20 16.6 20 20 C16.7 20 13.4 20 10 20 C10 16.7 10 13.4 10 10 C6.7 10 3.4 10 0 10 C0 6.7 0 3.4 0 0 Z " fill="#000000" transform="translate(620,290)"/>
<path d="M0 0 C26.4 0 52.8 0 80 0 C80 3.3 80 6.6 80 10 C63.5 10 47 10 30 10 C30 13.3 30 16.6 30 20 C26.7 20 23.4 20 20 20 C20 16.7 20 13.4 20 10 C13.4 10 6.8 10 0 10 C0 6.7 0 3.4 0 0 Z " fill="#FEFEFE" transform="translate(640,300)"/>
<path d="M0 0 C29.7 0 59.4 0 90 0 C90 3.3 90 6.6 90 10 C60.3 10 30.6 10 0 10 C0 6.7 0 3.4 0 0 Z " fill="#DADADA" transform="translate(500,270)"/>
<path d="M0 0 C26.4 0 52.8 0 80 0 C80 3.3 80 6.6 80 10 C53.6 10 27.2 10 0 10 C0 6.7 0 3.4 0 0 Z " fill="#FEFEFE" transform="translate(280,400)"/>
<path d="M0 0 C26.4 0 52.8 0 80 0 C80 3.3 80 6.6 80 10 C53.6 10 27.2 10 0 10 C0 6.7 0 3.4 0 0 Z " fill="#000000" transform="translate(280,390)"/>
<path d="M0 0 C26.4 0 52.8 0 80 0 C80 3.3 80 6.6 80 10 C53.6 10 27.2 10 0 10 C0 6.7 0 3.4 0 0 Z " fill="#FEFEFE" transform="translate(410,380)"/>
<path d="M0 0 C26.4 0 52.8 0 80 0 C80 3.3 80 6.6 80 10 C53.6 10 27.2 10 0 10 C0 6.7 0 3.4 0 0 Z " fill="#000000" transform="translate(410,370)"/>
<path d="M0 0 C3.3 0 6.6 0 10 0 C10 3.3 10 6.6 10 10 C29.8 10 49.6 10 70 10 C70 13.3 70 16.6 70 20 C46.9 20 23.8 20 0 20 C0 13.4 0 6.8 0 0 Z " fill="#EDEDED" transform="translate(350,310)"/>
<path d="M0 0 C6.6 0 13.2 0 20 0 C20 3.3 20 6.6 20 10 C23.3 10 26.6 10 30 10 C30 13.3 30 16.6 30 20 C33.3 20 36.6 20 40 20 C40 23.3 40 26.6 40 30 C36.7 30 33.4 30 30 30 C30 33.3 30 36.6 30 40 C26.7 40 23.4 40 20 40 C20 33.4 20 26.8 20 20 C13.4 20 6.8 20 0 20 C0 13.4 0 6.8 0 0 Z " fill="#000000" transform="translate(740,250)"/>
<path d="M0 0 C9.9 0 19.8 0 30 0 C30 6.6 30 13.2 30 20 C13.5 20 -3 20 -20 20 C-20 16.7 -20 13.4 -20 10 C-13.4 10 -6.8 10 0 10 C0 6.7 0 3.4 0 0 Z " fill="#000000" transform="translate(540,230)"/>
<path d="M0 0 C6.6 0 13.2 0 20 0 C20 6.6 20 13.2 20 20 C13.4 20 6.8 20 0 20 C0 26.6 0 33.2 0 40 C-3.3 40 -6.6 40 -10 40 C-10 36.7 -10 33.4 -10 30 C-13.3 30 -16.6 30 -20 30 C-20 26.7 -20 23.4 -20 20 C-16.7 20 -13.4 20 -10 20 C-10 16.7 -10 13.4 -10 10 C-6.7 10 -3.4 10 0 10 C0 6.7 0 3.4 0 0 Z " fill="#000000" transform="translate(180,230)"/>
<path d="M0 0 C23.1 0 46.2 0 70 0 C70 3.3 70 6.6 70 10 C46.9 10 23.8 10 0 10 C0 6.7 0 3.4 0 0 Z " fill="#FEFEFE" transform="translate(490,370)"/>
<path d="M0 0 C23.1 0 46.2 0 70 0 C70 3.3 70 6.6 70 10 C46.9 10 23.8 10 0 10 C0 6.7 0 3.4 0 0 Z " fill="#000000" transform="translate(490,360)"/>
<path d="M0 0 C19.8 0 39.6 0 60 0 C60 3.3 60 6.6 60 10 C40.2 10 20.4 10 0 10 C0 6.7 0 3.4 0 0 Z " fill="#FEFEFE" transform="translate(560,360)"/>
<path d="M0 0 C19.8 0 39.6 0 60 0 C60 3.3 60 6.6 60 10 C40.2 10 20.4 10 0 10 C0 6.7 0 3.4 0 0 Z " fill="#000000" transform="translate(560,350)"/>
<path d="M0 0 C13.2 0 26.4 0 40 0 C40 3.3 40 6.6 40 10 C33.4 10 26.8 10 20 10 C20 13.3 20 16.6 20 20 C13.4 20 6.8 20 0 20 C0 13.4 0 6.8 0 0 Z " fill="#000000" transform="translate(500,250)"/>
<path d="M0 0 C13.2 0 26.4 0 40 0 C40 6.6 40 13.2 40 20 C33.4 20 26.8 20 20 20 C20 16.7 20 13.4 20 10 C13.4 10 6.8 10 0 10 C0 6.7 0 3.4 0 0 Z " fill="#787878" transform="translate(650,240)"/>
<path d="M0 0 C16.5 0 33 0 50 0 C50 3.3 50 6.6 50 10 C33.5 10 17 10 0 10 C0 6.7 0 3.4 0 0 Z " fill="#FEFEFE" transform="translate(620,350)"/>
<path d="M0 0 C16.5 0 33 0 50 0 C50 3.3 50 6.6 50 10 C33.5 10 17 10 0 10 C0 6.7 0 3.4 0 0 Z " fill="#000000" transform="translate(620,340)"/>
<path d="M0 0 C16.5 0 33 0 50 0 C50 3.3 50 6.6 50 10 C33.5 10 17 10 0 10 C0 6.7 0 3.4 0 0 Z " fill="#000000" transform="translate(280,340)"/>
<path d="M0 0 C16.5 0 33 0 50 0 C50 3.3 50 6.6 50 10 C33.5 10 17 10 0 10 C0 6.7 0 3.4 0 0 Z " fill="#FEFEFE" transform="translate(270,290)"/>
<path d="M0 0 C16.5 0 33 0 50 0 C50 3.3 50 6.6 50 10 C33.5 10 17 10 0 10 C0 6.7 0 3.4 0 0 Z " fill="#000000" transform="translate(270,280)"/>
<path d="M0 0 C16.5 0 33 0 50 0 C50 3.3 50 6.6 50 10 C33.5 10 17 10 0 10 C0 6.7 0 3.4 0 0 Z " fill="#FEFEFE" transform="translate(220,280)"/>
<path d="M0 0 C16.5 0 33 0 50 0 C50 3.3 50 6.6 50 10 C33.5 10 17 10 0 10 C0 6.7 0 3.4 0 0 Z " fill="#000000" transform="translate(220,270)"/>
<path d="M0 0 C6.6 0 13.2 0 20 0 C20 3.3 20 6.6 20 10 C16.7 10 13.4 10 10 10 C10 13.3 10 16.6 10 20 C3.4 20 -3.2 20 -10 20 C-10 16.7 -10 13.4 -10 10 C-6.7 10 -3.4 10 0 10 C0 6.7 0 3.4 0 0 Z " fill="#000000" transform="translate(270,350)"/>
<path d="M0 0 C13.2 0 26.4 0 40 0 C40 3.3 40 6.6 40 10 C26.8 10 13.6 10 0 10 C0 6.7 0 3.4 0 0 Z " fill="#FEFEFE" transform="translate(290,330)"/>
<path d="M0 0 C6.6 0 13.2 0 20 0 C20 6.6 20 13.2 20 20 C13.4 20 6.8 20 0 20 C0 13.4 0 6.8 0 0 Z " fill="#8C8C8C" transform="translate(570,300)"/>
<path d="M0 0 C13.2 0 26.4 0 40 0 C40 3.3 40 6.6 40 10 C26.8 10 13.6 10 0 10 C0 6.7 0 3.4 0 0 Z " fill="#FEFEFE" transform="translate(720,290)"/>
<path d="M0 0 C13.2 0 26.4 0 40 0 C40 3.3 40 6.6 40 10 C26.8 10 13.6 10 0 10 C0 6.7 0 3.4 0 0 Z " fill="#000000" transform="translate(720,280)"/>
<path d="M0 0 C13.2 0 26.4 0 40 0 C40 3.3 40 6.6 40 10 C26.8 10 13.6 10 0 10 C0 6.7 0 3.4 0 0 Z " fill="#FEFEFE" transform="translate(180,270)"/>
<path d="M0 0 C13.2 0 26.4 0 40 0 C40 3.3 40 6.6 40 10 C26.8 10 13.6 10 0 10 C0 6.7 0 3.4 0 0 Z " fill="#000000" transform="translate(180,260)"/>
<path d="M0 0 C13.2 0 26.4 0 40 0 C40 3.3 40 6.6 40 10 C26.8 10 13.6 10 0 10 C0 6.7 0 3.4 0 0 Z " fill="#000000" transform="translate(200,220)"/>
<path d="M0 0 C13.2 0 26.4 0 40 0 C40 3.3 40 6.6 40 10 C26.8 10 13.6 10 0 10 C0 6.7 0 3.4 0 0 Z " fill="#FEFEFE" transform="translate(370,210)"/>
<path d="M0 0 C9.9 0 19.8 0 30 0 C30 3.3 30 6.6 30 10 C20.1 10 10.2 10 0 10 C0 6.7 0 3.4 0 0 Z " fill="#F2CD9F" transform="translate(330,380)"/>
<path d="M0 0 C9.9 0 19.8 0 30 0 C30 3.3 30 6.6 30 10 C20.1 10 10.2 10 0 10 C0 6.7 0 3.4 0 0 Z " fill="#DCBC51" transform="translate(620,330)"/>
<path d="M0 0 C9.9 0 19.8 0 30 0 C30 3.3 30 6.6 30 10 C20.1 10 10.2 10 0 10 C0 6.7 0 3.4 0 0 Z " fill="#EDEDED" transform="translate(420,310)"/>
<path d="M0 0 C3.3 0 6.6 0 10 0 C10 6.6 10 13.2 10 20 C3.4 20 -3.2 20 -10 20 C-10 16.7 -10 13.4 -10 10 C-6.7 10 -3.4 10 0 10 C0 6.7 0 3.4 0 0 Z " fill="#FEFEFE" transform="translate(340,310)"/>
<path d="M0 0 C9.9 0 19.8 0 30 0 C30 3.3 30 6.6 30 10 C20.1 10 10.2 10 0 10 C0 6.7 0 3.4 0 0 Z " fill="#000000" transform="translate(470,270)"/>
<path d="M0 0 C9.9 0 19.8 0 30 0 C30 3.3 30 6.6 30 10 C20.1 10 10.2 10 0 10 C0 6.7 0 3.4 0 0 Z " fill="#787878" transform="translate(270,270)"/>
<path d="M0 0 C9.9 0 19.8 0 30 0 C30 3.3 30 6.6 30 10 C20.1 10 10.2 10 0 10 C0 6.7 0 3.4 0 0 Z " fill="#FEFEFE" transform="translate(470,260)"/>
<path d="M0 0 C9.9 0 19.8 0 30 0 C30 3.3 30 6.6 30 10 C20.1 10 10.2 10 0 10 C0 6.7 0 3.4 0 0 Z " fill="#505050" transform="translate(250,260)"/>
<path d="M0 0 C9.9 0 19.8 0 30 0 C30 3.3 30 6.6 30 10 C20.1 10 10.2 10 0 10 C0 6.7 0 3.4 0 0 Z " fill="#787878" transform="translate(220,260)"/>
<path d="M0 0 C9.9 0 19.8 0 30 0 C30 3.3 30 6.6 30 10 C20.1 10 10.2 10 0 10 C0 6.7 0 3.4 0 0 Z " fill="#787878" transform="translate(690,250)"/>
<path d="M0 0 C6.6 0 13.2 0 20 0 C20 6.6 20 13.2 20 20 C16.7 20 13.4 20 10 20 C10 16.7 10 13.4 10 10 C6.7 10 3.4 10 0 10 C0 6.7 0 3.4 0 0 Z " fill="#000000" transform="translate(160,250)"/>
<path d="M0 0 C9.9 0 19.8 0 30 0 C30 3.3 30 6.6 30 10 C20.1 10 10.2 10 0 10 C0 6.7 0 3.4 0 0 Z " fill="#FEFEFE" transform="translate(690,230)"/>
<path d="M0 0 C9.9 0 19.8 0 30 0 C30 3.3 30 6.6 30 10 C20.1 10 10.2 10 0 10 C0 6.7 0 3.4 0 0 Z " fill="#FEFEFE" transform="translate(540,230)"/>
<path d="M0 0 C6.6 0 13.2 0 20 0 C20 3.3 20 6.6 20 10 C13.4 10 6.8 10 0 10 C0 6.7 0 3.4 0 0 Z " fill="#FEFEFE" transform="translate(370,400)"/>
<path d="M0 0 C6.6 0 13.2 0 20 0 C20 3.3 20 6.6 20 10 C13.4 10 6.8 10 0 10 C0 6.7 0 3.4 0 0 Z " fill="#FEFEFE" transform="translate(390,390)"/>
<path d="M0 0 C6.6 0 13.2 0 20 0 C20 3.3 20 6.6 20 10 C13.4 10 6.8 10 0 10 C0 6.7 0 3.4 0 0 Z " fill="#000000" transform="translate(370,390)"/>
<path d="M0 0 C6.6 0 13.2 0 20 0 C20 3.3 20 6.6 20 10 C13.4 10 6.8 10 0 10 C0 6.7 0 3.4 0 0 Z " fill="#000000" transform="translate(390,380)"/>
<path d="M0 0 C6.6 0 13.2 0 20 0 C20 3.3 20 6.6 20 10 C13.4 10 6.8 10 0 10 C0 6.7 0 3.4 0 0 Z " fill="#F2B878" transform="translate(390,370)"/>
<path d="M0 0 C6.6 0 13.2 0 20 0 C20 3.3 20 6.6 20 10 C13.4 10 6.8 10 0 10 C0 6.7 0 3.4 0 0 Z " fill="#F2CD9F" transform="translate(360,370)"/>
<path d="M0 0 C6.6 0 13.2 0 20 0 C20 3.3 20 6.6 20 10 C13.4 10 6.8 10 0 10 C0 6.7 0 3.4 0 0 Z " fill="#000000" transform="translate(330,330)"/>
<path d="M0 0 C6.6 0 13.2 0 20 0 C20 3.3 20 6.6 20 10 C13.4 10 6.8 10 0 10 C0 6.7 0 3.4 0 0 Z " fill="#E3E3E3" transform="translate(570,320)"/>
<path d="M0 0 C6.6 0 13.2 0 20 0 C20 3.3 20 6.6 20 10 C13.4 10 6.8 10 0 10 C0 6.7 0 3.4 0 0 Z " fill="#000000" transform="translate(640,310)"/>
<path d="M0 0 C3.3 0 6.6 0 10 0 C10 6.6 10 13.2 10 20 C6.7 20 3.4 20 0 20 C0 13.4 0 6.8 0 0 Z " fill="#000000" transform="translate(350,310)"/>
<path d="M0 0 C3.3 0 6.6 0 10 0 C10 6.6 10 13.2 10 20 C6.7 20 3.4 20 0 20 C0 13.4 0 6.8 0 0 Z " fill="#E3E3E3" transform="translate(590,300)"/>
<path d="M0 0 C3.3 0 6.6 0 10 0 C10 6.6 10 13.2 10 20 C6.7 20 3.4 20 0 20 C0 13.4 0 6.8 0 0 Z " fill="#E3E3E3" transform="translate(560,300)"/>
<path d="M0 0 C6.6 0 13.2 0 20 0 C20 3.3 20 6.6 20 10 C13.4 10 6.8 10 0 10 C0 6.7 0 3.4 0 0 Z " fill="#E3E3E3" transform="translate(570,290)"/>
<path d="M0 0 C6.6 0 13.2 0 20 0 C20 3.3 20 6.6 20 10 C13.4 10 6.8 10 0 10 C0 6.7 0 3.4 0 0 Z " fill="#000000" transform="translate(320,290)"/>
<path d="M0 0 C6.6 0 13.2 0 20 0 C20 3.3 20 6.6 20 10 C13.4 10 6.8 10 0 10 C0 6.7 0 3.4 0 0 Z " fill="#787878" transform="translate(700,280)"/>
<path d="M0 0 C6.6 0 13.2 0 20 0 C20 3.3 20 6.6 20 10 C13.4 10 6.8 10 0 10 C0 6.7 0 3.4 0 0 Z " fill="#787878" transform="translate(660,280)"/>
<path d="M0 0 C6.6 0 13.2 0 20 0 C20 3.3 20 6.6 20 10 C13.4 10 6.8 10 0 10 C0 6.7 0 3.4 0 0 Z " fill="#DADADA" transform="translate(590,280)"/>
<path d="M0 0 C6.6 0 13.2 0 20 0 C20 3.3 20 6.6 20 10 C13.4 10 6.8 10 0 10 C0 6.7 0 3.4 0 0 Z " fill="#000000" transform="translate(500,260)"/>
<path d="M0 0 C6.6 0 13.2 0 20 0 C20 3.3 20 6.6 20 10 C13.4 10 6.8 10 0 10 C0 6.7 0 3.4 0 0 Z " fill="#FEFEFE" transform="translate(740,250)"/>
<path d="M0 0 C6.6 0 13.2 0 20 0 C20 3.3 20 6.6 20 10 C13.4 10 6.8 10 0 10 C0 6.7 0 3.4 0 0 Z " fill="#000000" transform="translate(720,250)"/>
<path d="M0 0 C6.6 0 13.2 0 20 0 C20 3.3 20 6.6 20 10 C13.4 10 6.8 10 0 10 C0 6.7 0 3.4 0 0 Z " fill="#505050" transform="translate(670,250)"/>
<path d="M0 0 C6.6 0 13.2 0 20 0 C20 3.3 20 6.6 20 10 C13.4 10 6.8 10 0 10 C0 6.7 0 3.4 0 0 Z " fill="#FEFEFE" transform="translate(500,250)"/>
<path d="M0 0 C6.6 0 13.2 0 20 0 C20 3.3 20 6.6 20 10 C13.4 10 6.8 10 0 10 C0 6.7 0 3.4 0 0 Z " fill="#FEFEFE" transform="translate(720,240)"/>
<path d="M0 0 C6.6 0 13.2 0 20 0 C20 3.3 20 6.6 20 10 C13.4 10 6.8 10 0 10 C0 6.7 0 3.4 0 0 Z " fill="#FEFEFE" transform="translate(520,240)"/>
<path d="M0 0 C6.6 0 13.2 0 20 0 C20 3.3 20 6.6 20 10 C13.4 10 6.8 10 0 10 C0 6.7 0 3.4 0 0 Z " fill="#FEFEFE" transform="translate(430,230)"/>
<path d="M0 0 C6.6 0 13.2 0 20 0 C20 3.3 20 6.6 20 10 C13.4 10 6.8 10 0 10 C0 6.7 0 3.4 0 0 Z " fill="#000000" transform="translate(410,230)"/>
<path d="M0 0 C6.6 0 13.2 0 20 0 C20 3.3 20 6.6 20 10 C13.4 10 6.8 10 0 10 C0 6.7 0 3.4 0 0 Z " fill="#000000" transform="translate(200,230)"/>
<path d="M0 0 C6.6 0 13.2 0 20 0 C20 3.3 20 6.6 20 10 C13.4 10 6.8 10 0 10 C0 6.7 0 3.4 0 0 Z " fill="#FEFEFE" transform="translate(180,230)"/>
<path d="M0 0 C6.6 0 13.2 0 20 0 C20 3.3 20 6.6 20 10 C13.4 10 6.8 10 0 10 C0 6.7 0 3.4 0 0 Z " fill="#FEFEFE" transform="translate(410,220)"/>
<path d="M0 0 C6.6 0 13.2 0 20 0 C20 3.3 20 6.6 20 10 C13.4 10 6.8 10 0 10 C0 6.7 0 3.4 0 0 Z " fill="#FEFEFE" transform="translate(200,220)"/>
<path d="M0 0 C6.6 0 13.2 0 20 0 C20 3.3 20 6.6 20 10 C13.4 10 6.8 10 0 10 C0 6.7 0 3.4 0 0 Z " fill="#FEFEFE" transform="translate(220,210)"/>
<path d="M0 0 C3.3 0 6.6 0 10 0 C10 3.3 10 6.6 10 10 C6.7 10 3.4 10 0 10 C0 6.7 0 3.4 0 0 Z " fill="#FEFEFE" transform="translate(360,390)"/>
<path d="M0 0 C3.3 0 6.6 0 10 0 C10 3.3 10 6.6 10 10 C6.7 10 3.4 10 0 10 C0 6.7 0 3.4 0 0 Z " fill="#FEFEFE" transform="translate(270,390)"/>
<path d="M0 0 C3.3 0 6.6 0 10 0 C10 3.3 10 6.6 10 10 C6.7 10 3.4 10 0 10 C0 6.7 0 3.4 0 0 Z " fill="#000000" transform="translate(360,380)"/>
<path d="M0 0 C3.3 0 6.6 0 10 0 C10 3.3 10 6.6 10 10 C6.7 10 3.4 10 0 10 C0 6.7 0 3.4 0 0 Z " fill="#000000" transform="translate(270,380)"/>
<path d="M0 0 C3.3 0 6.6 0 10 0 C10 3.3 10 6.6 10 10 C6.7 10 3.4 10 0 10 C0 6.7 0 3.4 0 0 Z " fill="#FEFEFE" transform="translate(260,380)"/>
<path d="M0 0 C3.3 0 6.6 0 10 0 C10 3.3 10 6.6 10 10 C6.7 10 3.4 10 0 10 C0 6.7 0 3.4 0 0 Z " fill="#FEFEFE" transform="translate(250,370)"/>
<path d="M0 0 C3.3 0 6.6 0 10 0 C10 3.3 10 6.6 10 10 C6.7 10 3.4 10 0 10 C0 6.7 0 3.4 0 0 Z " fill="#FEFEFE" transform="translate(260,360)"/>
<path d="M0 0 C3.3 0 6.6 0 10 0 C10 3.3 10 6.6 10 10 C6.7 10 3.4 10 0 10 C0 6.7 0 3.4 0 0 Z " fill="#FEFEFE" transform="translate(270,350)"/>
<path d="M0 0 C3.3 0 6.6 0 10 0 C10 3.3 10 6.6 10 10 C6.7 10 3.4 10 0 10 C0 6.7 0 3.4 0 0 Z " fill="#FEFEFE" transform="translate(670,340)"/>
<path d="M0 0 C3.3 0 6.6 0 10 0 C10 3.3 10 6.6 10 10 C6.7 10 3.4 10 0 10 C0 6.7 0 3.4 0 0 Z " fill="#FEFEFE" transform="translate(280,340)"/>
<path d="M0 0 C3.3 0 6.6 0 10 0 C10 3.3 10 6.6 10 10 C6.7 10 3.4 10 0 10 C0 6.7 0 3.4 0 0 Z " fill="#FEFEFE" transform="translate(680,330)"/>
<path d="M0 0 C3.3 0 6.6 0 10 0 C10 3.3 10 6.6 10 10 C6.7 10 3.4 10 0 10 C0 6.7 0 3.4 0 0 Z " fill="#000000" transform="translate(670,330)"/>
<path d="M0 0 C3.3 0 6.6 0 10 0 C10 3.3 10 6.6 10 10 C6.7 10 3.4 10 0 10 C0 6.7 0 3.4 0 0 Z " fill="#E5D05D" transform="translate(640,330)"/>
<path d="M0 0 C3.3 0 6.6 0 10 0 C10 3.3 10 6.6 10 10 C6.7 10 3.4 10 0 10 C0 6.7 0 3.4 0 0 Z " fill="#FEFEFE" transform="translate(670,320)"/>
<path d="M0 0 C3.3 0 6.6 0 10 0 C10 3.3 10 6.6 10 10 C6.7 10 3.4 10 0 10 C0 6.7 0 3.4 0 0 Z " fill="#000000" transform="translate(660,320)"/>
<path d="M0 0 C3.3 0 6.6 0 10 0 C10 3.3 10 6.6 10 10 C6.7 10 3.4 10 0 10 C0 6.7 0 3.4 0 0 Z " fill="#141414" transform="translate(580,310)"/>
<path d="M0 0 C3.3 0 6.6 0 10 0 C10 3.3 10 6.6 10 10 C6.7 10 3.4 10 0 10 C0 6.7 0 3.4 0 0 Z " fill="#000000" transform="translate(340,300)"/>
<path d="M0 0 C3.3 0 6.6 0 10 0 C10 3.3 10 6.6 10 10 C6.7 10 3.4 10 0 10 C0 6.7 0 3.4 0 0 Z " fill="#DADADA" transform="translate(610,290)"/>
<path d="M0 0 C3.3 0 6.6 0 10 0 C10 3.3 10 6.6 10 10 C6.7 10 3.4 10 0 10 C0 6.7 0 3.4 0 0 Z " fill="#FEFEFE" transform="translate(760,280)"/>
<path d="M0 0 C3.3 0 6.6 0 10 0 C10 3.3 10 6.6 10 10 C6.7 10 3.4 10 0 10 C0 6.7 0 3.4 0 0 Z " fill="#EDEDED" transform="translate(470,280)"/>
<path d="M0 0 C3.3 0 6.6 0 10 0 C10 3.3 10 6.6 10 10 C6.7 10 3.4 10 0 10 C0 6.7 0 3.4 0 0 Z " fill="#FEFEFE" transform="translate(770,270)"/>
<path d="M0 0 C3.3 0 6.6 0 10 0 C10 3.3 10 6.6 10 10 C6.7 10 3.4 10 0 10 C0 6.7 0 3.4 0 0 Z " fill="#000000" transform="translate(760,270)"/>
<path d="M0 0 C3.3 0 6.6 0 10 0 C10 3.3 10 6.6 10 10 C6.7 10 3.4 10 0 10 C0 6.7 0 3.4 0 0 Z " fill="#FEFEFE" transform="translate(760,260)"/>
<path d="M0 0 C3.3 0 6.6 0 10 0 C10 3.3 10 6.6 10 10 C6.7 10 3.4 10 0 10 C0 6.7 0 3.4 0 0 Z " fill="#000000" transform="translate(460,260)"/>
<path d="M0 0 C3.3 0 6.6 0 10 0 C10 3.3 10 6.6 10 10 C6.7 10 3.4 10 0 10 C0 6.7 0 3.4 0 0 Z " fill="#FEFEFE" transform="translate(170,260)"/>
<path d="M0 0 C3.3 0 6.6 0 10 0 C10 3.3 10 6.6 10 10 C6.7 10 3.4 10 0 10 C0 6.7 0 3.4 0 0 Z " fill="#FEFEFE" transform="translate(460,250)"/>
<path d="M0 0 C3.3 0 6.6 0 10 0 C10 3.3 10 6.6 10 10 C6.7 10 3.4 10 0 10 C0 6.7 0 3.4 0 0 Z " fill="#000000" transform="translate(450,250)"/>
<path d="M0 0 C3.3 0 6.6 0 10 0 C10 3.3 10 6.6 10 10 C6.7 10 3.4 10 0 10 C0 6.7 0 3.4 0 0 Z " fill="#FEFEFE" transform="translate(160,250)"/>
<path d="M0 0 C3.3 0 6.6 0 10 0 C10 3.3 10 6.6 10 10 C6.7 10 3.4 10 0 10 C0 6.7 0 3.4 0 0 Z " fill="#FEFEFE" transform="translate(450,240)"/>
<path d="M0 0 C3.3 0 6.6 0 10 0 C10 3.3 10 6.6 10 10 C6.7 10 3.4 10 0 10 C0 6.7 0 3.4 0 0 Z " fill="#FEFEFE" transform="translate(170,240)"/>
</svg>
